<?xml version="1.0" encoding="UTF-8" standalone="no"?>
<!-- Created by Hugo Lopez, using Inkscape (http://www.inkscape.org/). -->
<svg
   xmlns:dc="http://purl.org/dc/elements/1.1/"
   xmlns:cc="http://creativecommons.org/ns#"
   xmlns:rdf="http://www.w3.org/1999/02/22-rdf-syntax-ns#"
   xmlns:svg="http://www.w3.org/2000/svg"
   xmlns="http://www.w3.org/2000/svg"
   xmlns:sodipodi="http://sodipodi.sourceforge.net/DTD/sodipodi-0.dtd"
   xmlns:inkscape="http://www.inkscape.org/namespaces/inkscape"
   version="0.32"
   height="300.00000px"
   width="300.00000px"
   docname="Optimized Model 車 300px.svg"
   docbase="/home/yug/svg to optized txt"
   id="svg2"
   sodipodi:version="0.32"
   inkscape:version="0.46"
   sodipodi:docname="車-model.svg"
   inkscape:output_extension="org.inkscape.output.svg.inkscape">
  <sodipodi:namedview
     inkscape:window-height="727"
     inkscape:window-width="1270"
     inkscape:pageshadow="2"
     inkscape:pageopacity="0.0"
     guidetolerance="10.0"
     gridtolerance="10.0"
     objecttolerance="10.0"
     borderopacity="1.0"
     bordercolor="#666666"
     pagecolor="#ffffff"
     id="base"
     showgrid="false"
     inkscape:zoom="1.7380554"
     inkscape:cx="231.7005"
     inkscape:cy="143.80308"
     inkscape:window-x="0"
     inkscape:window-y="0"
     inkscape:current-layer="svg2"
     showguides="true"
     inkscape:guide-bbox="true" />
  <namedview
     id="namedview4" />
  <namedview
     id="namedview6" />
  <metadata
     id="metadata8">
    <rdf:RDF>
      <cc:Work
         rdf:about="">
        <dc:format>image/svg+xml</dc:format>
        <dc:type
           rdf:resource="http://purl.org/dc/dcmitype/StillImage" />
      </cc:Work>
    </rdf:RDF>
  </metadata>
  <defs
     id="defs10" />
  <namedview
     document-units="px"
     pageopacity="0.0000000"
     borderopacity="1.0000000"
     id="namedview12" />
  <path
     id="path3627"
     d="M 143.23611,303.31473 L 156.76389,303.31473 L 156.76389,316.8425 L 143.23611,316.8425 L 143.23611,303.31473 z"
     style="fill:#d9bb7a;fill-opacity:1;stroke:#816647;stroke-width:0.315;stroke-miterlimit:4" />
  <text
     xml:space="preserve"
     transform="scale(0.9523101,1.0500781)"
     y="256.12775"
     x="155.9541"
     linespacing="100%"
     style="font-size:299.99996948px;writing-mode:lr-tb;text-anchor:end;fill:#000000;fill-opacity:1;stroke:none;stroke-width:1px;stroke-linecap:butt;stroke-linejoin:miter;stroke-opacity:1;font-family:San GunguSue Medium"
     id="character 車"><tspan
       style="font-size:289.99996948px;font-style:normal;font-variant:normal;font-weight:normal;font-stretch:normal;text-align:center;text-anchor:middle;font-family:AR PL UKai CN;-inkscape-font-specification:AR PL UKai CN"
       id="tspan16"
       role="line">車</tspan></text>
  <path
     inkscape:label="number00"
     d="M 5.83033,286.84296 C 5.83033,289.25915 4.48488,291.22012 2.82709,291.22012 C 1.16931,291.22012 -0.17614,289.25915 -0.17614,286.84296 C -0.17614,284.42677 1.16931,282.46581 2.82709,282.46581 C 4.48488,282.46581 5.83033,284.42677 5.83033,286.84296 z M 4.36254,286.84297 C 4.36254,288.21756 3.67466,289.33318 2.8271,289.33318 C 1.97953,289.33318 1.29165,288.21756 1.29165,286.84297 C 1.29165,285.46837 1.97953,284.35276 2.8271,284.35276 C 3.67466,284.35276 4.36254,285.46837 4.36254,286.84297 z"
     style="fill:#ffffff;fill-opacity:1;stroke:#000000;stroke-width:0.315;stroke-miterlimit:4"
     id="number00" />
  <path
     inkscape:label="number01"
     id="number01"
     d="M 17.86407,285.25344 L 15.85832,285.25344 L 15.85832,284.1588 C 17.30036,284.15881 18.15684,283.65846 18.42778,282.65775 L 19.51587,282.65775 L 19.51587,291.02818 L 17.86407,291.02818 L 17.86407,285.25344"
     style="font-size:29.93531227px;font-style:normal;font-variant:normal;font-weight:normal;font-stretch:normal;fill:#ffffff;fill-opacity:0.98578198;stroke:#000000;stroke-width:0.31462815;stroke-linecap:butt;stroke-linejoin:miter;stroke-miterlimit:4;stroke-dasharray:none;stroke-opacity:1;font-family:AR PL UKai TW;-inkscape-font-specification:AR PL UKai TW" />
  <path
     sodipodi:nodetypes="cccccszzccc"
     inkscape:label="number02"
     id="number02"
     d="M 35.40923,285.37253 C 35.40923,287.81136 31.83489,288.57905 31.83489,289.63202 L 35.37446,289.63202 L 35.37446,291.11339 L 29.68494,291.11339 C 29.72864,290.34428 29.9062,289.44232 30.22526,289.02163 C 31.18205,287.76008 33.27812,287.02574 33.65995,285.81635 C 34.04337,284.60195 33.50548,283.91626 32.56903,283.91626 C 31.63258,283.91626 31.38262,284.58313 31.38262,285.65984 L 29.80292,285.65984 C 29.81004,281.63788 35.40923,281.76012 35.40923,285.37253 z"
     style="font-size:29.93531227px;font-style:normal;font-variant:normal;font-weight:normal;font-stretch:normal;fill:#ffffff;fill-opacity:0.98578198;stroke:#000000;stroke-width:0.31462815;stroke-linecap:butt;stroke-linejoin:miter;stroke-miterlimit:4;stroke-dasharray:none;stroke-opacity:1;font-family:AR PL UKai TW;-inkscape-font-specification:AR PL UKai TW" />
  <path
     sodipodi:nodetypes="czcccccccscczccc"
     inkscape:label="number03"
     id="number03"
     d="M 46.75533,286.13506 C 47.66261,286.13506 48.35752,286.12779 48.35752,284.86998 C 48.35752,283.61293 46.16823,283.5837 46.16823,285.2436 L 44.63442,285.17478 C 44.63442,283.25434 46.04862,282.43818 47.34809,282.43818 C 48.92819,282.43818 50.00932,283.44247 50.00932,284.71922 C 50.00932,285.69493 49.56895,285.88119 48.90812,286.49556 C 49.89347,286.96798 50.27806,287.42586 50.27806,288.57342 C 50.27806,290.47121 49.09748,291.24775 47.34809,291.24775 C 46.4916,291.24775 45.8099,291.00306 45.30301,290.51362 C 44.7961,290.0242 44.54047,289.36218 44.5361,288.52753 L 46.14202,288.52753 C 46.19008,289.39714 46.54865,289.83194 47.38087,289.83194 C 48.21165,289.83194 48.62627,289.34024 48.62627,288.50504 C 48.62627,287.80578 48.09725,287.23626 46.75161,287.23626 L 46.75533,286.13506 z"
     style="font-size:29.93531227px;font-style:normal;font-variant:normal;font-weight:normal;font-stretch:normal;fill:#ffffff;fill-opacity:0.98578198;stroke:#000000;stroke-width:0.31462815;stroke-linecap:butt;stroke-linejoin:miter;stroke-miterlimit:4;stroke-dasharray:none;stroke-opacity:1;font-family:AR PL UKai TW;-inkscape-font-specification:AR PL UKai TW" />
  <path
     inkscape:label="number04"
     d="M 65.20688,287.80324 L 65.20688,289.17318 L 64.32855,289.17318 L 64.32855,291.02818 L 62.67675,291.02818 L 62.67675,289.17318 L 59.32727,289.17318 L 59.32727,287.79013 L 62.38178,282.65775 L 64.32855,282.65775 L 64.32855,287.80324 L 65.20688,287.80324 M 62.67675,287.80324 L 62.67675,284.2309 L 60.49401,287.80324 L 62.67675,287.80324"
     style="font-size:29.93531227px;font-style:normal;font-variant:normal;font-weight:normal;font-stretch:normal;fill:#ffffff;fill-opacity:0.98578198;stroke:#000000;stroke-width:0.31462815;stroke-linecap:butt;stroke-linejoin:miter;stroke-miterlimit:4;stroke-dasharray:none;stroke-opacity:1;font-family:AR PL UKai TW;-inkscape-font-specification:AR PL UKai TW"
     id="number04" />
  <path
     sodipodi:nodetypes="cccczscczszcccc"
     inkscape:label="number05"
     id="number05"
     d="M 79.69327,282.52338 L 79.69327,284.00476 L 76.23236,284.00476 L 75.96361,285.74832 C 78.26818,284.68258 80.021,286.08801 80.021,288.13426 C 80.021,290.27047 79.07862,291.08653 77.28938,291.16255 C 75.56772,291.23569 74.62574,290.25817 74.23315,288.70452 L 75.87184,288.70452 C 76.01534,289.56748 76.54407,289.74673 77.21234,289.74673 C 77.92883,289.74673 78.3692,289.11273 78.3692,288.17359 C 78.3692,287.19156 77.91115,286.55456 77.21234,286.55456 C 76.51136,286.55456 76.13403,286.7665 75.96361,287.19037 L 74.46913,287.19037 L 75.21637,282.52338 L 79.69327,282.52338"
     style="font-size:29.93531227px;font-style:normal;font-variant:normal;font-weight:normal;font-stretch:normal;fill:#ffffff;fill-opacity:0.98578198;stroke:#000000;stroke-width:0.31462815;stroke-linecap:butt;stroke-linejoin:miter;stroke-miterlimit:4;stroke-dasharray:none;stroke-opacity:1;font-family:AR PL UKai TW;-inkscape-font-specification:AR PL UKai TW" />
  <path
     sodipodi:nodetypes="cccccsszscczzzz"
     inkscape:label="number06"
     d="M 91.86271,282.43818 C 93.88676,282.43818 94.39641,283.33948 94.71166,284.51602 L 93.1844,284.51602 C 93.1844,284.11211 92.72026,283.77533 92.1553,283.77533 C 91.29816,283.77533 90.83695,285.06502 90.76569,286.2137 C 91.23024,285.62773 91.78909,285.33626 92.48725,285.33626 C 93.42718,285.33626 94.85586,286.51472 94.85586,288.04336 C 94.85586,290.07338 93.39931,291.24775 92.06353,291.24775 C 90.72535,291.24775 89.55616,290.28543 89.25155,288.80284 C 88.70585,286.14682 89.88689,282.43818 91.86271,282.43818 z M 92.02421,286.76431 C 91.2528,286.76431 90.73948,287.37672 90.73948,288.31778 C 90.73948,289.25985 91.25638,289.83194 92.0111,289.83194 C 92.71746,289.83194 93.28928,289.18362 93.28928,288.29156 C 93.28928,287.40293 92.79995,286.76431 92.02421,286.76431 z"
     style="font-size:29.93531227px;font-style:normal;font-variant:normal;font-weight:normal;font-stretch:normal;fill:#ffffff;fill-opacity:0.98578198;stroke:#000000;stroke-width:0.31462815;stroke-linecap:butt;stroke-linejoin:miter;stroke-miterlimit:4;stroke-dasharray:none;stroke-opacity:1;font-family:AR PL UKai TW;-inkscape-font-specification:AR PL UKai TW"
     id="number06" />
  <path
     sodipodi:nodetypes="cccccccc"
     inkscape:label="number07"
     id="number07"
     d="M 109.78687,282.65775 L 109.78687,284.5776 C 107.94621,286.62161 107.1105,288.35206 106.79135,291.02818 L 105.13299,291.02818 C 105.3202,288.41297 106.52398,286.20428 108.06953,284.13913 L 103.90726,284.13913 L 103.90726,282.65775 L 109.78687,282.65775"
     style="font-size:29.93531227px;font-style:normal;font-variant:normal;font-weight:normal;font-stretch:normal;fill:#ffffff;fill-opacity:0.98578198;stroke:#000000;stroke-width:0.31462815;stroke-linecap:butt;stroke-linejoin:miter;stroke-miterlimit:4;stroke-dasharray:none;stroke-opacity:1;font-family:AR PL UKai TW;-inkscape-font-specification:AR PL UKai TW" />
  <path
     sodipodi:nodetypes="ccszsczzsczzzzczzzz"
     inkscape:label="number08"
     d="M 124.3879,284.69956 C 124.3879,285.88387 123.30637,286.42346 123.30637,286.42346 C 123.30637,286.42346 124.66268,287.13604 124.67631,288.57342 C 124.68994,290.0108 123.48504,291.24775 121.70701,291.24775 C 119.92898,291.24775 118.73771,290.00696 118.73771,288.57342 C 118.73771,287.16158 120.10109,286.42346 120.10109,286.42346 C 120.10109,286.42346 119.01956,285.94831 119.01956,284.71922 C 119.01956,283.47254 120.1487,282.43818 121.70701,282.43818 C 123.28293,282.43818 124.3879,283.51498 124.3879,284.69956 z M 121.71356,283.77533 C 121.04327,283.77533 120.47471,284.09775 120.47471,284.85687 C 120.47471,285.59838 120.97932,285.95808 121.71356,285.95808 C 122.43019,285.95808 122.95897,285.64696 122.95897,284.86998 C 122.95897,284.11061 122.36625,283.77533 121.71356,283.77533 z M 121.70046,287.08548 C 120.96311,287.08548 120.3895,287.58427 120.3895,288.47509 C 120.3895,289.36625 120.9299,289.83194 121.70046,289.83194 C 122.47073,289.83194 123.02451,289.30697 123.02451,288.50132 C 123.02451,287.67806 122.45542,287.08548 121.70046,287.08548 z"
     style="font-size:29.93531227px;font-style:normal;font-variant:normal;font-weight:normal;font-stretch:normal;fill:#ffffff;fill-opacity:0.98578198;stroke:#000000;stroke-width:0.31462815;stroke-linecap:butt;stroke-linejoin:miter;stroke-miterlimit:4;stroke-dasharray:none;stroke-opacity:1;font-family:AR PL UKai TW;-inkscape-font-specification:AR PL UKai TW"
     id="number08" />
  <path
     id="number09"
     style="font-size:29.93531227px;font-style:normal;font-variant:normal;font-weight:normal;font-stretch:normal;fill:#ffffff;fill-opacity:0.98578198;stroke:#000000;stroke-width:0.31462815;stroke-linecap:butt;stroke-linejoin:miter;stroke-miterlimit:4;stroke-dasharray:none;stroke-opacity:1;font-family:AR PL UKai TW;-inkscape-font-specification:AR PL UKai TW"
     d="M 136.69141,291.24775 C 134.66736,291.24775 134.16155,290.36078 133.84246,289.16991 L 135.36972,289.16991 C 135.36972,289.57382 135.83386,289.9106 136.39882,289.9106 C 137.46953,289.9106 138.05995,288.65035 137.9998,287.59553 C 137.53525,288.1815 136.76503,288.34967 136.06687,288.34967 C 135.12694,288.34967 133.69826,287.17121 133.69826,285.64257 C 133.69826,283.61255 135.15481,282.43818 136.49059,282.43818 C 137.82877,282.43818 138.94823,283.41159 139.30257,284.88309 C 139.94214,287.53911 139.21212,291.24775 136.69141,291.24775 z M 136.52991,286.92162 C 137.30132,286.92162 137.81464,286.30921 137.81464,285.36815 C 137.81464,284.42608 137.29774,283.85399 136.54302,283.85399 C 135.83666,283.85399 135.26484,284.50231 135.26484,285.39437 C 135.26484,286.283 135.75417,286.92162 136.52991,286.92162 z"
     inkscape:label="number09"
     sodipodi:nodetypes="cccccsszscczzzz" />
  <path
     inkscape:label="number10"
     d="M 3.00407,308.55631 L 0.99832,308.55631 L 0.99832,307.46167 C 2.44036,307.46168 3.29684,306.96133 3.56778,305.96062 L 4.65587,305.96062 L 4.65587,314.33105 L 3.00407,314.33105 L 3.00407,308.55631 M 11.33138,310.14583 C 11.33138,312.56202 9.98593,314.52299 8.32814,314.52299 C 6.67036,314.52299 5.32491,312.56202 5.32491,310.14583 C 5.32491,307.72964 6.67036,305.76868 8.32814,305.76868 C 9.98593,305.76868 11.33138,307.72964 11.33138,310.14583 z M 9.86359,310.14584 C 9.86359,311.52043 9.17571,312.63605 8.32815,312.63605 C 7.48058,312.63605 6.7927,311.52043 6.7927,310.14584 C 6.7927,308.77124 7.48058,307.65563 8.32815,307.65563 C 9.17571,307.65563 9.86359,308.77124 9.86359,310.14584 z"
     style="font-size:29.93531227px;font-style:normal;font-variant:normal;font-weight:normal;font-stretch:normal;fill:#ffffff;fill-opacity:0.98578198;stroke:#000000;stroke-width:0.31462815;stroke-linecap:butt;stroke-linejoin:miter;stroke-miterlimit:4;stroke-dasharray:none;stroke-opacity:1;font-family:AR PL UKai TW;-inkscape-font-specification:AR PL UKai TW"
     id="number10" />
  <path
     inkscape:label="number11"
     d="M 17.86407,308.55631 L 15.85832,308.55631 L 15.85832,307.46167 C 17.30036,307.46168 18.15684,306.96133 18.42778,305.96062 L 19.51587,305.96062 L 19.51587,314.33105 L 17.86407,314.33105 L 17.86407,308.55631 M 22.37872,308.55631 L 20.37297,308.55631 L 20.37297,307.46167 C 21.81501,307.46168 22.67149,306.96133 22.94243,305.96062 L 24.03052,305.96062 L 24.03052,314.33105 L 22.37872,314.33105 L 22.37872,308.55631"
     style="font-size:29.93531227px;font-style:normal;font-variant:normal;font-weight:normal;font-stretch:normal;fill:#ffffff;fill-opacity:0.98578198;stroke:#000000;stroke-width:0.31462815;stroke-linecap:butt;stroke-linejoin:miter;stroke-miterlimit:4;stroke-dasharray:none;stroke-opacity:1;font-family:AR PL UKai TW;-inkscape-font-specification:AR PL UKai TW"
     id="number11" />
  <path
     inkscape:label="number12"
     d="M 32.72406,308.55631 L 30.71831,308.55631 L 30.71831,307.46167 C 32.16035,307.46168 33.01683,306.96133 33.28777,305.96062 L 34.37586,305.96062 L 34.37586,314.33105 L 32.72406,314.33105 L 32.72406,308.55631 M 40.91028,308.63519 C 40.91028,311.07402 37.33594,311.84171 37.33594,312.89468 L 40.87551,312.89468 L 40.87551,314.37605 L 35.18599,314.37605 C 35.22969,313.60694 35.40725,312.70498 35.72631,312.28429 C 36.6831,311.02274 38.77917,310.2884 39.161,309.07901 C 39.54442,307.86461 39.00653,307.17892 38.07008,307.17892 C 37.13363,307.17892 36.88367,307.84579 36.88367,308.9225 L 35.30397,308.9225 C 35.31109,304.90054 40.91028,305.02278 40.91028,308.63519 z"
     style="font-size:29.93531227px;font-style:normal;font-variant:normal;font-weight:normal;font-stretch:normal;fill:#ffffff;fill-opacity:0.98578198;stroke:#000000;stroke-width:0.31462815;stroke-linecap:butt;stroke-linejoin:miter;stroke-miterlimit:4;stroke-dasharray:none;stroke-opacity:1;font-family:AR PL UKai TW;-inkscape-font-specification:AR PL UKai TW"
     id="number12" />
  <path
     inkscape:label="number13"
     d="M 47.58406,308.55631 L 45.5783,308.55631 L 45.5783,307.46167 C 47.02034,307.46168 47.87683,306.96133 48.14776,305.96062 L 49.23586,305.96062 L 49.23586,314.33105 L 47.58406,314.33105 L 47.58406,308.55631 M 52.25638,309.43793 C 53.16366,309.43793 53.85857,309.43066 53.85857,308.17285 C 53.85857,306.9158 51.66928,306.88657 51.66928,308.54647 L 50.13547,308.47765 C 50.13547,306.55721 51.54967,305.74105 52.84914,305.74105 C 54.42924,305.74105 55.51037,306.74534 55.51037,308.02209 C 55.51037,308.9978 55.07,309.18406 54.40917,309.79843 C 55.39452,310.27085 55.77911,310.72873 55.77911,311.87629 C 55.77911,313.77408 54.59853,314.55062 52.84914,314.55062 C 51.99265,314.55062 51.31095,314.30593 50.80406,313.81649 C 50.29715,313.32707 50.04152,312.66505 50.03715,311.8304 L 51.64307,311.8304 C 51.69113,312.70001 52.0497,313.13481 52.88192,313.13481 C 53.7127,313.13481 54.12732,312.64311 54.12732,311.80791 C 54.12732,311.10865 53.5983,310.53913 52.25266,310.53913 L 52.25638,309.43793 z"
     style="font-size:29.93531227px;font-style:normal;font-variant:normal;font-weight:normal;font-stretch:normal;fill:#ffffff;fill-opacity:0.98578198;stroke:#000000;stroke-width:0.31462815;stroke-linecap:butt;stroke-linejoin:miter;stroke-miterlimit:4;stroke-dasharray:none;stroke-opacity:1;font-family:AR PL UKai TW;-inkscape-font-specification:AR PL UKai TW"
     id="number13" />
  <path
     inkscape:label="number14"
     d="M 62.44405,308.55631 L 60.4383,308.55631 L 60.4383,307.46167 C 61.88034,307.46168 62.73682,306.96133 63.00776,305.96062 L 64.09585,305.96062 L 64.09585,314.33105 L 62.44405,314.33105 L 62.44405,308.55631 M 70.70793,311.10611 L 70.70793,312.47605 L 69.8296,312.47605 L 69.8296,314.33105 L 68.1778,314.33105 L 68.1778,312.47605 L 64.82832,312.47605 L 64.82832,311.093 L 67.88283,305.96062 L 69.8296,305.96062 L 69.8296,311.10611 L 70.70793,311.10611 M 68.1778,311.10611 L 68.1778,307.53377 L 65.99506,311.10611 L 68.1778,311.10611"
     style="font-size:29.93531227px;font-style:normal;font-variant:normal;font-weight:normal;font-stretch:normal;fill:#ffffff;fill-opacity:0.98578198;stroke:#000000;stroke-width:0.31462815;stroke-linecap:butt;stroke-linejoin:miter;stroke-miterlimit:4;stroke-dasharray:none;stroke-opacity:1;font-family:AR PL UKai TW;-inkscape-font-specification:AR PL UKai TW"
     id="number14" />
  <path
     inkscape:label="number15"
     d="M 77.30405,308.55631 L 75.2983,308.55631 L 75.2983,307.46167 C 76.74034,307.46168 77.59682,306.96133 77.86776,305.96062 L 78.95585,305.96062 L 78.95585,314.33105 L 77.30405,314.33105 L 77.30405,308.55631 M 85.19432,305.82433 L 85.19432,307.30571 L 81.73341,307.30571 L 81.46466,309.04927 C 83.76923,307.98353 85.52205,309.38896 85.52205,311.43521 C 85.52205,313.57142 84.57967,314.38748 82.79043,314.4635 C 81.06877,314.53664 80.12679,313.55912 79.7342,312.00547 L 81.37289,312.00547 C 81.51639,312.86843 82.04512,313.04768 82.71339,313.04768 C 83.42988,313.04768 83.87025,312.41368 83.87025,311.47454 C 83.87025,310.49251 83.4122,309.85551 82.71339,309.85551 C 82.01241,309.85551 81.63508,310.06745 81.46466,310.49132 L 79.97018,310.49132 L 80.71742,305.82433 L 85.19432,305.82433"
     style="font-size:29.93531227px;font-style:normal;font-variant:normal;font-weight:normal;font-stretch:normal;fill:#ffffff;fill-opacity:0.98578198;stroke:#000000;stroke-width:0.31462815;stroke-linecap:butt;stroke-linejoin:miter;stroke-miterlimit:4;stroke-dasharray:none;stroke-opacity:1;font-family:AR PL UKai TW;-inkscape-font-specification:AR PL UKai TW"
     id="number15" />
  <path
     inkscape:label="number16"
     d="M 92.16403,308.55631 L 90.15829,308.55631 L 90.15829,307.46167 C 91.60033,307.46168 92.45681,306.96133 92.72775,305.96062 L 93.81584,305.96062 L 93.81584,314.33105 L 92.16403,314.33105 L 92.16403,308.55631 M 97.36376,305.74105 C 99.38781,305.74105 99.89746,306.64235 100.21271,307.81889 L 98.68545,307.81889 C 98.68545,307.41498 98.22131,307.0782 97.65635,307.0782 C 96.79921,307.0782 96.338,308.36789 96.26674,309.51657 C 96.73129,308.9306 97.29014,308.63913 97.9883,308.63913 C 98.92823,308.63913 100.35691,309.81759 100.35691,311.34623 C 100.35691,313.37625 98.90036,314.55062 97.56458,314.55062 C 96.2264,314.55062 95.05721,313.5883 94.7526,312.10571 C 94.2069,309.44969 95.38794,305.74105 97.36376,305.74105 z M 97.52526,310.06718 C 96.75385,310.06718 96.24053,310.67959 96.24053,311.62065 C 96.24053,312.56272 96.75743,313.13481 97.51215,313.13481 C 98.21851,313.13481 98.79033,312.48649 98.79033,311.59443 C 98.79033,310.7058 98.301,310.06718 97.52526,310.06718 z"
     style="font-size:29.93531227px;font-style:normal;font-variant:normal;font-weight:normal;font-stretch:normal;fill:#ffffff;fill-opacity:0.98578198;stroke:#000000;stroke-width:0.31462815;stroke-linecap:butt;stroke-linejoin:miter;stroke-miterlimit:4;stroke-dasharray:none;stroke-opacity:1;font-family:AR PL UKai TW;-inkscape-font-specification:AR PL UKai TW"
     id="number16" />
  <path
     inkscape:label="number17"
     d="M 107.02404,308.55631 L 105.01829,308.55631 L 105.01829,307.46167 C 106.46033,307.46168 107.31681,306.96133 107.58775,305.96062 L 108.67584,305.96062 L 108.67584,314.33105 L 107.02404,314.33105 L 107.02404,308.55631 M 115.28792,305.96062 L 115.28792,307.88047 C 113.44726,309.92448 112.61155,311.65493 112.2924,314.33105 L 110.63404,314.33105 C 110.82125,311.71584 112.02503,309.50715 113.57058,307.442 L 109.40831,307.442 L 109.40831,305.96062 L 115.28792,305.96062"
     style="font-size:29.93531227px;font-style:normal;font-variant:normal;font-weight:normal;font-stretch:normal;fill:#ffffff;fill-opacity:0.98578198;stroke:#000000;stroke-width:0.31462815;stroke-linecap:butt;stroke-linejoin:miter;stroke-miterlimit:4;stroke-dasharray:none;stroke-opacity:1;font-family:AR PL UKai TW;-inkscape-font-specification:AR PL UKai TW"
     id="number17" />
  <path
     inkscape:label="number18"
     d="M 121.88405,308.55631 L 119.8783,308.55631 L 119.8783,307.46167 C 121.32033,307.46168 122.17681,306.96133 122.44776,305.96062 L 123.53584,305.96062 L 123.53584,314.33105 L 121.88405,314.33105 L 121.88405,308.55631 M 129.88895,308.00243 C 129.88895,309.18674 128.80742,309.72633 128.80742,309.72633 C 128.80742,309.72633 130.16373,310.43891 130.17736,311.87629 C 130.19099,313.31367 128.98609,314.55062 127.20806,314.55062 C 125.43003,314.55062 124.23876,313.30983 124.23876,311.87629 C 124.23876,310.46445 125.60214,309.72633 125.60214,309.72633 C 125.60214,309.72633 124.52061,309.25118 124.52061,308.02209 C 124.52061,306.77541 125.64975,305.74105 127.20806,305.74105 C 128.78398,305.74105 129.88895,306.81785 129.88895,308.00243 z M 127.21461,307.0782 C 126.54432,307.0782 125.97576,307.40062 125.97576,308.15974 C 125.97576,308.90125 126.48037,309.26095 127.21461,309.26095 C 127.93124,309.26095 128.46002,308.94983 128.46002,308.17285 C 128.46002,307.41348 127.8673,307.0782 127.21461,307.0782 z M 127.20151,310.38835 C 126.46416,310.38835 125.89055,310.88714 125.89055,311.77796 C 125.89055,312.66912 126.43095,313.13481 127.20151,313.13481 C 127.97178,313.13481 128.52556,312.60984 128.52556,311.80419 C 128.52556,310.98093 127.95647,310.38835 127.20151,310.38835 z"
     style="font-size:29.93531227px;font-style:normal;font-variant:normal;font-weight:normal;font-stretch:normal;fill:#ffffff;fill-opacity:0.98578198;stroke:#000000;stroke-width:0.31462815;stroke-linecap:butt;stroke-linejoin:miter;stroke-miterlimit:4;stroke-dasharray:none;stroke-opacity:1;font-family:AR PL UKai TW;-inkscape-font-specification:AR PL UKai TW"
     id="number18" />
  <path
     inkscape:label="number19"
     d="M 136.74403,308.55631 L 134.73828,308.55631 L 134.73828,307.46167 C 136.18032,307.46168 137.0368,306.96133 137.30774,305.96062 L 138.39583,305.96062 L 138.39583,314.33105 L 136.74403,314.33105 L 136.74403,308.55631 M 142.32798,314.55062 C 140.30393,314.55062 139.79812,313.66365 139.47903,312.47278 L 141.00629,312.47278 C 141.00629,312.87669 141.47043,313.21347 142.03539,313.21347 C 143.1061,313.21347 143.69652,311.95322 143.63637,310.8984 C 143.17182,311.48437 142.4016,311.65254 141.70344,311.65254 C 140.76351,311.65254 139.33483,310.47408 139.33483,308.94544 C 139.33483,306.91542 140.79138,305.74105 142.12716,305.74105 C 143.46534,305.74105 144.5848,306.71446 144.93914,308.18596 C 145.57871,310.84198 144.84869,314.55062 142.32798,314.55062 z M 142.16648,310.22449 C 142.93789,310.22449 143.45121,309.61208 143.45121,308.67102 C 143.45121,307.72895 142.93431,307.15686 142.17959,307.15686 C 141.47323,307.15686 140.90141,307.80518 140.90141,308.69724 C 140.90141,309.58587 141.39074,310.22449 142.16648,310.22449 z"
     style="font-size:29.93531227px;font-style:normal;font-variant:normal;font-weight:normal;font-stretch:normal;fill:#ffffff;fill-opacity:0.98578198;stroke:#000000;stroke-width:0.31462815;stroke-linecap:butt;stroke-linejoin:miter;stroke-miterlimit:4;stroke-dasharray:none;stroke-opacity:1;font-family:AR PL UKai TW;-inkscape-font-specification:AR PL UKai TW"
     id="number19" />
  <path
     inkscape:label="number20"
     d="M 11.33138,330.14583 C 11.33138,332.56202 9.98593,334.52299 8.32814,334.52299 C 6.67036,334.52299 5.32491,332.56202 5.32491,330.14583 C 5.32491,327.72964 6.67036,325.76868 8.32814,325.76868 C 9.98593,325.76868 11.33138,327.72964 11.33138,330.14583 z M 9.86359,330.14584 C 9.86359,331.52043 9.17571,332.63605 8.32815,332.63605 C 7.48058,332.63605 6.7927,331.52043 6.7927,330.14584 C 6.7927,328.77124 7.48058,327.65563 8.32815,327.65563 C 9.17571,327.65563 9.86359,328.77124 9.86359,330.14584 z M 5.68924,328.63519 C 5.68924,331.07402 2.1149,331.84171 2.1149,332.89468 L 5.65447,332.89468 L 5.65447,334.37605 L -0.03505,334.37605 C 0.00865,333.60694 0.18621,332.70498 0.50527,332.28429 C 1.46206,331.02274 3.55813,330.2884 3.93996,329.07901 C 4.32338,327.86461 3.78549,327.17892 2.84904,327.17892 C 1.91259,327.17892 1.66263,327.84579 1.66263,328.9225 L 0.08293,328.9225 C 0.09005,324.90054 5.68924,325.02278 5.68924,328.63519 z"
     style="fill:#ffffff;fill-opacity:1;stroke:#000000;stroke-width:0.315;stroke-miterlimit:4"
     id="number20" />
  <path
     inkscape:label="number21"
     d="M 22.37872,328.55631 L 20.37297,328.55631 L 20.37297,327.46167 C 21.81501,327.46168 22.67149,326.96133 22.94243,325.96062 L 24.03052,325.96062 L 24.03052,334.33105 L 22.37872,334.33105 L 22.37872,328.55631 M 19.51587,328.63519 C 19.51587,331.07402 15.94153,331.84171 15.94153,332.89468 L 19.4811,332.89468 L 19.4811,334.37605 L 13.79158,334.37605 C 13.83528,333.60694 14.01284,332.70498 14.3319,332.28429 C 15.28869,331.02274 17.38476,330.2884 17.76659,329.07901 C 18.15001,327.86461 17.61212,327.17892 16.67567,327.17892 C 15.73922,327.17892 15.48926,327.84579 15.48926,328.9225 L 13.90956,328.9225 C 13.91668,324.90054 19.51587,325.02278 19.51587,328.63519 z"
     style="font-size:29.93531227px;font-style:normal;font-variant:normal;font-weight:normal;font-stretch:normal;fill:#ffffff;fill-opacity:0.98578198;stroke:#000000;stroke-width:0.31462815;stroke-linecap:butt;stroke-linejoin:miter;stroke-miterlimit:4;stroke-dasharray:none;stroke-opacity:1;font-family:AR PL UKai TW;-inkscape-font-specification:AR PL UKai TW"
     id="number21" />
  <path
     inkscape:label="number22"
     d="M 40.91028,328.63519 C 40.91028,331.07402 37.33594,331.84171 37.33594,332.89468 L 40.87551,332.89468 L 40.87551,334.37605 L 35.18599,334.37605 C 35.22969,333.60694 35.40725,332.70498 35.72631,332.28429 C 36.6831,331.02274 38.77917,330.2884 39.161,329.07901 C 39.54442,327.86461 39.00653,327.17892 38.07008,327.17892 C 37.13363,327.17892 36.88367,327.84579 36.88367,328.9225 L 35.30397,328.9225 C 35.31109,324.90054 40.91028,325.02278 40.91028,328.63519 z M 35.40923,328.63519 C 35.40923,331.07402 31.83489,331.84171 31.83489,332.89468 L 35.37446,332.89468 L 35.37446,334.37605 L 29.68494,334.37605 C 29.72864,333.60694 29.9062,332.70498 30.22526,332.28429 C 31.18205,331.02274 33.27812,330.2884 33.65995,329.07901 C 34.04337,327.86461 33.50548,327.17892 32.56903,327.17892 C 31.63258,327.17892 31.38262,327.84579 31.38262,328.9225 L 29.80292,328.9225 C 29.81004,324.90054 35.40923,325.02278 35.40923,328.63519 z"
     style="font-size:29.93531227px;font-style:normal;font-variant:normal;font-weight:normal;font-stretch:normal;fill:#ffffff;fill-opacity:0.98578198;stroke:#000000;stroke-width:0.31462815;stroke-linecap:butt;stroke-linejoin:miter;stroke-miterlimit:4;stroke-dasharray:none;stroke-opacity:1;font-family:AR PL UKai TW;-inkscape-font-specification:AR PL UKai TW"
     id="number22" />
  <path
     inkscape:label="number23"
     d="M 52.25638,329.43793 C 53.16366,329.43793 53.85857,329.43066 53.85857,328.17285 C 53.85857,326.9158 51.66928,326.88657 51.66928,328.54647 L 50.13547,328.47765 C 50.13547,326.55721 51.54967,325.74105 52.84914,325.74105 C 54.42924,325.74105 55.51037,326.74534 55.51037,328.02209 C 55.51037,328.9978 55.07,329.18406 54.40917,329.79843 C 55.39452,330.27085 55.77911,330.72873 55.77911,331.87629 C 55.77911,333.77408 54.59853,334.55062 52.84914,334.55062 C 51.99265,334.55062 51.31095,334.30593 50.80406,333.81649 C 50.29715,333.32707 50.04152,332.66505 50.03715,331.8304 L 51.64307,331.8304 C 51.69113,332.70001 52.0497,333.13481 52.88192,333.13481 C 53.7127,333.13481 54.12732,332.64311 54.12732,331.80791 C 54.12732,331.10865 53.5983,330.53913 52.25266,330.53913 L 52.25638,329.43793 z M 50.26922,328.63519 C 50.26922,331.07402 46.69488,331.84171 46.69488,332.89468 L 50.23445,332.89468 L 50.23445,334.37605 L 44.54493,334.37605 C 44.58863,333.60694 44.76619,332.70498 45.08525,332.28429 C 46.04205,331.02274 48.13812,330.2884 48.51994,329.07901 C 48.90337,327.86461 48.36548,327.17892 47.42903,327.17892 C 46.49258,327.17892 46.24261,327.84579 46.24261,328.9225 L 44.66292,328.9225 C 44.67003,324.90054 50.26922,325.02278 50.26922,328.63519 z"
     style="font-size:29.93531227px;font-style:normal;font-variant:normal;font-weight:normal;font-stretch:normal;fill:#ffffff;fill-opacity:0.98578198;stroke:#000000;stroke-width:0.31462815;stroke-linecap:butt;stroke-linejoin:miter;stroke-miterlimit:4;stroke-dasharray:none;stroke-opacity:1;font-family:AR PL UKai TW;-inkscape-font-specification:AR PL UKai TW"
     id="number23" />
  <path
     inkscape:label="number24"
     d="M 70.70793,331.10611 L 70.70793,332.47605 L 69.8296,332.47605 L 69.8296,334.33105 L 68.1778,334.33105 L 68.1778,332.47605 L 64.82832,332.47605 L 64.82832,331.093 L 67.88283,325.96062 L 69.8296,325.96062 L 69.8296,331.10611 L 70.70793,331.10611 M 68.1778,331.10611 L 68.1778,327.53377 L 65.99506,331.10611 L 68.1778,331.10611 M 65.12922,328.63519 C 65.12922,331.07402 61.55488,331.84171 61.55488,332.89468 L 65.09445,332.89468 L 65.09445,334.37605 L 59.40493,334.37605 C 59.44863,333.60694 59.62619,332.70498 59.94525,332.28429 C 60.90204,331.02274 62.99811,330.2884 63.37994,329.07901 C 63.76336,327.86461 63.22547,327.17892 62.28902,327.17892 C 61.35257,327.17892 61.10261,327.84579 61.10261,328.9225 L 59.52291,328.9225 C 59.53003,324.90054 65.12922,325.02278 65.12922,328.63519 z"
     style="font-size:29.93531227px;font-style:normal;font-variant:normal;font-weight:normal;font-stretch:normal;fill:#ffffff;fill-opacity:0.98578198;stroke:#000000;stroke-width:0.31462815;stroke-linecap:butt;stroke-linejoin:miter;stroke-miterlimit:4;stroke-dasharray:none;stroke-opacity:1;font-family:AR PL UKai TW;-inkscape-font-specification:AR PL UKai TW"
     id="number24" />
  <path
     inkscape:label="number25"
     d="M 85.19432,325.82433 L 85.19432,327.30571 L 81.73341,327.30571 L 81.46466,329.04927 C 83.76923,327.98353 85.52205,329.38896 85.52205,331.43521 C 85.52205,333.57142 84.57967,334.38748 82.79043,334.4635 C 81.06877,334.53664 80.12679,333.55912 79.7342,332.00547 L 81.37289,332.00547 C 81.51639,332.86843 82.04512,333.04768 82.71339,333.04768 C 83.42988,333.04768 83.87025,332.41368 83.87025,331.47454 C 83.87025,330.49251 83.4122,329.85551 82.71339,329.85551 C 82.01241,329.85551 81.63508,330.06745 81.46466,330.49132 L 79.97018,330.49132 L 80.71742,325.82433 L 85.19432,325.82433 M 79.98922,328.63519 C 79.98922,331.07402 76.41488,331.84171 76.41488,332.89468 L 79.95445,332.89468 L 79.95445,334.37605 L 74.26493,334.37605 C 74.30863,333.60694 74.48619,332.70498 74.80525,332.28429 C 75.76204,331.02274 77.85811,330.2884 78.23994,329.07901 C 78.62336,327.86461 78.08547,327.17892 77.14902,327.17892 C 76.21257,327.17892 75.96261,327.84579 75.96261,328.9225 L 74.38291,328.9225 C 74.39003,324.90054 79.98922,325.02278 79.98922,328.63519 z"
     style="font-size:29.93531227px;font-style:normal;font-variant:normal;font-weight:normal;font-stretch:normal;fill:#ffffff;fill-opacity:0.98578198;stroke:#000000;stroke-width:0.31462815;stroke-linecap:butt;stroke-linejoin:miter;stroke-miterlimit:4;stroke-dasharray:none;stroke-opacity:1;font-family:AR PL UKai TW;-inkscape-font-specification:AR PL UKai TW"
     id="number25" />
  <path
     inkscape:label="number26"
     d="M 97.36376,325.74105 C 99.38781,325.74105 99.89746,326.64235 100.21271,327.81889 L 98.68545,327.81889 C 98.68545,327.41498 98.22131,327.0782 97.65635,327.0782 C 96.79921,327.0782 96.338,328.36789 96.26674,329.51657 C 96.73129,328.9306 97.29014,328.63913 97.9883,328.63913 C 98.92823,328.63913 100.35691,329.81759 100.35691,331.34623 C 100.35691,333.37625 98.90036,334.55062 97.56458,334.55062 C 96.2264,334.55062 95.05721,333.5883 94.7526,332.10571 C 94.2069,329.44969 95.38794,325.74105 97.36376,325.74105 z M 97.52526,330.06718 C 96.75385,330.06718 96.24053,330.67959 96.24053,331.62065 C 96.24053,332.56272 96.75743,333.13481 97.51215,333.13481 C 98.21851,333.13481 98.79033,332.48649 98.79033,331.59443 C 98.79033,330.7058 98.301,330.06718 97.52526,330.06718 z M 94.84921,328.63519 C 94.84921,331.07402 91.27487,331.84171 91.27487,332.89468 L 94.81444,332.89468 L 94.81444,334.37605 L 89.12492,334.37605 C 89.16862,333.60694 89.34618,332.70498 89.66524,332.28429 C 90.62203,331.02274 92.7181,330.2884 93.09993,329.07901 C 93.48335,327.86461 92.94546,327.17892 92.00901,327.17892 C 91.07256,327.17892 90.8226,327.84579 90.8226,328.9225 L 89.2429,328.9225 C 89.25002,324.90054 94.84921,325.02278 94.84921,328.63519 z"
     style="font-size:29.93531227px;font-style:normal;font-variant:normal;font-weight:normal;font-stretch:normal;fill:#ffffff;fill-opacity:0.98578198;stroke:#000000;stroke-width:0.31462815;stroke-linecap:butt;stroke-linejoin:miter;stroke-miterlimit:4;stroke-dasharray:none;stroke-opacity:1;font-family:AR PL UKai TW;-inkscape-font-specification:AR PL UKai TW"
     id="number26" />
  <path
     inkscape:label="number27"
     d="M 115.28792,325.96062 L 115.28792,327.88047 C 113.44726,329.92448 112.61155,331.65493 112.2924,334.33105 L 110.63404,334.33105 C 110.82125,331.71584 112.02503,329.50715 113.57058,327.442 L 109.40831,327.442 L 109.40831,325.96062 L 115.28792,325.96062 M 109.70921,328.63519 C 109.70921,331.07402 106.13487,331.84171 106.13487,332.89468 L 109.67444,332.89468 L 109.67444,334.37605 L 103.98492,334.37605 C 104.02862,333.60694 104.20618,332.70498 104.52524,332.28429 C 105.48203,331.02274 107.5781,330.2884 107.95993,329.07901 C 108.34335,327.86461 107.80546,327.17892 106.86901,327.17892 C 105.93256,327.17892 105.6826,327.84579 105.6826,328.9225 L 104.1029,328.9225 C 104.11002,324.90054 109.70921,325.02278 109.70921,328.63519 z"
     style="font-size:29.93531227px;font-style:normal;font-variant:normal;font-weight:normal;font-stretch:normal;fill:#ffffff;fill-opacity:0.98578198;stroke:#000000;stroke-width:0.31462815;stroke-linecap:butt;stroke-linejoin:miter;stroke-miterlimit:4;stroke-dasharray:none;stroke-opacity:1;font-family:AR PL UKai TW;-inkscape-font-specification:AR PL UKai TW"
     id="number27" />
  <path
     inkscape:label="number28"
     d="M 129.88895,328.00243 C 129.88895,329.18674 128.80742,329.72633 128.80742,329.72633 C 128.80742,329.72633 130.16373,330.43891 130.17736,331.87629 C 130.19099,333.31367 128.98609,334.55062 127.20806,334.55062 C 125.43003,334.55062 124.23876,333.30983 124.23876,331.87629 C 124.23876,330.46445 125.60214,329.72633 125.60214,329.72633 C 125.60214,329.72633 124.52061,329.25118 124.52061,328.02209 C 124.52061,326.77541 125.64975,325.74105 127.20806,325.74105 C 128.78398,325.74105 129.88895,326.81785 129.88895,328.00243 z M 127.21461,327.0782 C 126.54432,327.0782 125.97576,327.40062 125.97576,328.15974 C 125.97576,328.90125 126.48037,329.26095 127.21461,329.26095 C 127.93124,329.26095 128.46002,328.94983 128.46002,328.17285 C 128.46002,327.41348 127.8673,327.0782 127.21461,327.0782 z M 127.20151,330.38835 C 126.46416,330.38835 125.89055,330.88714 125.89055,331.77796 C 125.89055,332.66912 126.43095,333.13481 127.20151,333.13481 C 127.97178,333.13481 128.52556,332.60984 128.52556,331.80419 C 128.52556,330.98093 127.95647,330.38835 127.20151,330.38835 z M 124.56921,328.63519 C 124.56921,331.07402 120.99488,331.84171 120.99488,332.89468 L 124.53445,332.89468 L 124.53445,334.37605 L 118.84493,334.37605 C 118.88863,333.60694 119.06619,332.70498 119.38524,332.28429 C 120.34204,331.02274 122.43811,330.2884 122.81994,329.07901 C 123.20336,327.86461 122.66547,327.17892 121.72902,327.17892 C 120.79257,327.17892 120.54261,327.84579 120.54261,328.9225 L 118.96291,328.9225 C 118.97003,324.90054 124.56921,325.02278 124.56921,328.63519 z"
     style="font-size:29.93531227px;font-style:normal;font-variant:normal;font-weight:normal;font-stretch:normal;fill:#ffffff;fill-opacity:0.98578198;stroke:#000000;stroke-width:0.31462815;stroke-linecap:butt;stroke-linejoin:miter;stroke-miterlimit:4;stroke-dasharray:none;stroke-opacity:1;font-family:AR PL UKai TW;-inkscape-font-specification:AR PL UKai TW"
     id="number28" />
  <path
     inkscape:label="number29"
     d="M 142.32798,334.55062 C 140.30393,334.55062 139.79812,333.66365 139.47903,332.47278 L 141.00629,332.47278 C 141.00629,332.87669 141.47043,333.21347 142.03539,333.21347 C 143.1061,333.21347 143.69652,331.95322 143.63637,330.8984 C 143.17182,331.48437 142.4016,331.65254 141.70344,331.65254 C 140.76351,331.65254 139.33483,330.47408 139.33483,328.94544 C 139.33483,326.91542 140.79138,325.74105 142.12716,325.74105 C 143.46534,325.74105 144.5848,326.71446 144.93914,328.18596 C 145.57871,330.84198 144.84869,334.55062 142.32798,334.55062 z M 142.16648,330.22449 C 142.93789,330.22449 143.45121,329.61208 143.45121,328.67102 C 143.45121,327.72895 142.93431,327.15686 142.17959,327.15686 C 141.47323,327.15686 140.90141,327.80518 140.90141,328.69724 C 140.90141,329.58587 141.39074,330.22449 142.16648,330.22449 z M 139.4292,328.63519 C 139.4292,331.07402 135.85486,331.84171 135.85486,332.89468 L 139.39443,332.89468 L 139.39443,334.37605 L 133.70491,334.37605 C 133.74861,333.60694 133.92617,332.70498 134.24523,332.28429 C 135.20202,331.02274 137.29809,330.2884 137.67992,329.07901 C 138.06334,327.86461 137.52545,327.17892 136.589,327.17892 C 135.65255,327.17892 135.40259,327.84579 135.40259,328.9225 L 133.82289,328.9225 C 133.83001,324.90054 139.4292,325.02278 139.4292,328.63519 z"
     style="font-size:29.93531227px;font-style:normal;font-variant:normal;font-weight:normal;font-stretch:normal;fill:#ffffff;fill-opacity:0.98578198;stroke:#000000;stroke-width:0.31462815;stroke-linecap:butt;stroke-linejoin:miter;stroke-miterlimit:4;stroke-dasharray:none;stroke-opacity:1;font-family:AR PL UKai TW;-inkscape-font-specification:AR PL UKai TW"
     id="number29" />
</svg>
